<?xml version="1.0" standalone="no"?><!DOCTYPE svg PUBLIC "-//W3C//DTD SVG 1.1//EN" "http://www.w3.org/Graphics/SVG/1.1/DTD/svg11.dtd"><svg t="1618831278339" class="icon" viewBox="0 0 1024 1024" version="1.1" xmlns="http://www.w3.org/2000/svg" p-id="8907" width="32" height="32" xmlns:xlink="http://www.w3.org/1999/xlink"><defs><style type="text/css"></style></defs><path d="M870.7 195.7h-98.3L752 141.1c-16.1-42.6-64.3-75.9-109.5-75.9H381.6c-45.3 0-93.4 33.3-109.6 76l-20.4 54.5h-98.3C68.8 195.7 0 264.4 0 349v456.5C0 890 68.8 958.8 153.3 958.8h717.4c84.5 0 153.3-68.8 153.3-153.3V349c0-84.6-68.8-153.3-153.3-153.3zM512 785.2c-114.7 0-208-93.3-208-208s93.3-208 208-208 208 93.3 208 208-93.3 208-208 208z" p-id="8908" fill="#ffffff"></path></svg>