<?xml version="1.0" standalone="no"?><!DOCTYPE svg PUBLIC "-//W3C//DTD SVG 1.1//EN" "http://www.w3.org/Graphics/SVG/1.1/DTD/svg11.dtd"><svg t="1618833431875" class="icon" viewBox="0 0 1062 1024" version="1.1" xmlns="http://www.w3.org/2000/svg" p-id="9799" width="16.59375" height="16" xmlns:xlink="http://www.w3.org/1999/xlink"><defs><style type="text/css"></style></defs><path d="M718.008549 90.657946 718.008549 90.657946 718.008549 90.657946 235.881861 626.11388C218.361914 645.571754 198.032538 690.195625 194.660139 717.761894 194.352159 719.920957 193.778789 724.120695 193.028963 729.927098 191.766325 739.704557 190.501615 750.239965 189.323877 761.08719 187.962979 773.621367 186.810517 785.738768 185.933346 797.069506 184.490863 815.702593 183.87701 831.250099 184.194802 842.003631 184.315429 846.085439 184.555201 848.72701 184.620042 849.060348 182.761988 839.508287 178.876463 830.001926 165.341853 817.81531 156.091913 809.486625 147.155177 805.25276 138.442539 802.899775 135.004149 801.971182 132.571974 801.604491 130.693248 801.468451 131.156693 801.502011 133.941941 801.434511 138.147056 801.091611 148.973888 800.208753 164.484631 797.937596 183.024123 794.559876 190.493647 793.198999 198.333399 791.6817 206.443964 790.035423 219.732433 787.338138 233.076322 784.434294 245.775065 781.531292 253.352786 779.798984 258.965948 778.467769 263.651934 777.345313 288.931824 771.794175 331.020988 747.1688 348.619683 727.623469L830.74637 192.167535C830.700358 192.218637 830.693099 192.075464 830.821816 192.19136L717.976968 90.585405C717.913192 90.527981 718.136523 90.515816 718.008549 90.657946L718.008549 90.657946ZM661.639641 39.90315C689.682851 8.758009 737.407702 6.012182 768.731763 34.216495L881.576611 135.82245C912.678744 163.826938 915.011056 211.940935 887.115283 242.92233L404.988593 778.378264C376.945381 809.523405 320.904065 842.432535 279.920422 851.432016 279.920422 851.432016 129.95785 888.024143 114.587058 874.184218 97.874149 859.135848 119.568411 707.050418 119.568411 707.050418 124.631655 665.464444 151.617178 606.340479 179.512951 575.359086L661.639641 39.90315 661.639641 39.90315Z" p-id="9800" fill="#ffffff"></path><path d="M0 948.148136l1061.925912 0 0 75.851851-1061.925912 0 0-75.851851Z" p-id="9801" fill="#ffffff"></path></svg>