<?xml version="1.0" standalone="no"?><!DOCTYPE svg PUBLIC "-//W3C//DTD SVG 1.1//EN" "http://www.w3.org/Graphics/SVG/1.1/DTD/svg11.dtd"><svg t="1618834051267" class="icon" viewBox="0 0 1024 1024" version="1.1" xmlns="http://www.w3.org/2000/svg" p-id="31456" xmlns:xlink="http://www.w3.org/1999/xlink" width="32" height="32"><defs><style type="text/css"></style></defs><path d="M895.488 730.624l-65.536-50.176c-11.264-9.728-17.92-22.528-17.92-37.376v-232.96c0-40.448-8.192-79.872-24.576-117.248-14.848-35.84-37.376-68.096-65.536-95.744-27.648-27.648-60.416-48.64-96.256-65.024-13.312-5.12-26.112-9.728-40.96-12.8V86.528c0-42.496-34.304-76.288-76.8-76.288s-76.8 34.304-76.8 76.288v32.768c-12.8 3.072-27.648 8.192-40.96 12.8-35.84 14.848-68.608 37.376-96.256 65.024-27.648 27.648-49.152 60.416-65.536 95.744-16.384 37.376-24.576 76.288-24.576 117.248V642.56c0 14.848-6.656 29.184-17.92 37.376l-65.536 50.176c-9.728 9.728-17.92 22.528-23.04 38.912-3.072 12.8-3.072 27.648 1.536 42.496 5.12 12.8 13.312 26.112 24.576 34.304 13.312 9.728 27.648 14.848 44.032 14.848H849.92c16.384 0 31.232-5.12 44.032-14.848 11.264-8.192 19.456-20.992 24.576-34.304 5.12-12.8 5.12-27.648 1.536-42.496-3.072-13.824-11.264-28.672-24.576-38.4z m-97.792-8.192l65.536 50.176c8.192 6.656 8.192 14.848 6.656 19.456-1.536 6.656-8.192 11.264-16.384 11.264H168.96c-9.728 0-14.848-6.656-16.384-11.264-1.536-6.656-1.536-14.848 6.656-19.456l65.536-50.176c24.576-19.456 39.424-48.64 39.424-79.872V410.112c0-136.704 111.104-247.296 248.32-247.296s248.32 110.592 248.32 247.296V642.56c-2.56 32.768 10.752 61.952 36.864 79.872zM510.464 64c13.312 0 23.04 9.728 23.04 22.528v19.456h-45.568V86.528C487.424 73.728 497.152 64 510.464 64zM409.088 907.776c0 55.296 45.568 100.864 101.376 100.864S611.84 963.072 611.84 907.776v-1.536H409.088v1.536z m-164.864-775.68c5.12-5.12 9.728-11.264 9.728-17.92 0-6.656-1.536-14.848-6.656-19.456-5.12-6.656-13.312-9.728-20.992-9.728-6.656 0-11.264 1.536-16.384 6.656-47.104 38.912-88.064 86.016-117.76 138.24-30.72 55.296-48.64 115.2-56.832 177.152-1.536 14.848 9.728 27.648 24.576 29.184h3.072c12.8 0 24.576-9.728 26.112-24.576C102.4 303.104 157.696 202.24 244.224 132.096z m682.496 97.792c-29.184-53.76-68.608-100.864-117.76-138.24-5.12-3.072-11.264-6.656-16.384-6.656-8.192 0-16.384 3.072-20.992 9.728-9.728 11.264-8.192 27.648 3.072 37.376 86.528 70.144 141.824 168.96 155.136 279.552 1.536 12.8 12.8 24.576 26.112 24.576h3.072c6.656 0 13.312-5.12 17.92-9.728 5.12-5.12 6.656-12.8 6.656-19.456-6.144-61.952-26.112-121.856-56.832-177.152z m0 0" p-id="31457" fill="#ea9518"></path></svg>