<?xml version="1.0" standalone="no"?><!DOCTYPE svg PUBLIC "-//W3C//DTD SVG 1.1//EN" "http://www.w3.org/Graphics/SVG/1.1/DTD/svg11.dtd"><svg t="1618834145231" class="icon" viewBox="0 0 1024 1024" version="1.1" xmlns="http://www.w3.org/2000/svg" p-id="35232" xmlns:xlink="http://www.w3.org/1999/xlink" width="32" height="32"><defs><style type="text/css"></style></defs><path d="M972.635487 631.216851L892.207069 548.741164a368.50839 368.50839 0 0 0 1.754802-37.216423 372.456694 372.456694 0 0 0-1.754802-37.216423l80.428418-82.18322a51.181721 51.181721 0 0 0 18.791004-69.82649l-76.699465-132.926241a51.181721 51.181721 0 0 0-69.82649-18.86412l-111.576152 28.73488a385.105891 385.105891 0 0 0-64.488968-37.289539L638.053267 51.181721a51.181721 51.181721 0 0 0-51.181721-51.181721h-153.545163a51.181721 51.181721 0 0 0-51.18172 51.181721l-30.78215 111.064334a384.082256 384.082256 0 0 0-64.488968 37.216423L175.297394 170.727597a51.181721 51.181721 0 0 0-69.826491 18.86412L29.063906 322.517958a51.181721 51.181721 0 0 0 18.86412 69.82649l80.428418 82.183221a368.50839 368.50839 0 0 0-1.754802 37.216422c0 12.502963 0.584934 24.859693 1.754802 37.216423l-80.428418 82.18322a51.181721 51.181721 0 0 0-18.86412 69.826491L105.76337 833.896466a51.181721 51.181721 0 0 0 69.826491 18.86412l111.576151-28.734881a385.252124 385.252124 0 0 0 64.488968 37.216423l30.78215 111.064334a51.181721 51.181721 0 0 0 51.18172 51.181721h153.545163a51.181721 51.181721 0 0 0 51.181721-51.181721l30.782149-111.064334a383.570439 383.570439 0 0 0 64.488968-37.216423l111.503035 28.734881a51.181721 51.181721 0 0 0 69.82649-18.86412l76.699465-132.926241a51.181721 51.181721 0 0 0-19.010354-69.753374z m-462.536522 59.663263a179.20914 179.20914 0 0 1-179.062906-179.062906 179.20914 179.20914 0 0 1 179.062906-179.062906 179.20914 179.20914 0 0 1 179.062906 179.062906 179.282256 179.282256 0 0 1-179.062906 179.062906z m0 0" fill="#707070" p-id="35233"></path></svg>