<?xml version="1.0" standalone="no"?><!DOCTYPE svg PUBLIC "-//W3C//DTD SVG 1.1//EN" "http://www.w3.org/Graphics/SVG/1.1/DTD/svg11.dtd"><svg t="1618834080543" class="icon" viewBox="0 0 1024 1024" version="1.1" xmlns="http://www.w3.org/2000/svg" p-id="32894" xmlns:xlink="http://www.w3.org/1999/xlink" width="32" height="32"><defs><style type="text/css"></style></defs><path d="M712.106667 660.906667c-24.661333 0-46.933333 9.685333-63.829334 25.130666l-231.68-135.168c1.749333-7.296 2.944-14.805333 2.944-22.656 0-7.850667-1.194667-15.36-2.944-22.698666l229.205334-133.717334c17.450667 16.213333 40.618667 26.368 66.304 26.368a97.578667 97.578667 0 1 0-97.536-97.493333c0 7.808 1.194667 15.36 2.944 22.613333L388.266667 457.045333a96.938667 96.938667 0 0 0-66.304-26.325333 97.536 97.536 0 0 0 0 195.072c25.685333 0 48.853333-10.154667 66.304-26.368l231.552 135.082667c-1.536 6.826667-2.56 13.909333-2.56 21.333333a94.848 94.848 0 1 0 94.805333-94.848z" fill="#1afa29" p-id="32895"></path></svg>